<svg width="62" height="30" xmlns="http://www.w3.org/2000/svg">
 <g id="Layer_1">
  <title>Layer 1</title>
  <g>
   <g fill="#fff">
    <path d="m51.04901,6.57301a8.749,8.749 0 0 0 -6.681,3.341l0,-9.914l-5.352,2.838l0,26.906l5.245,0l0,-3.089a9.071,9.071 0 0 0 6.9,3.341c6.5,0 10.884,-5.137 10.884,-11.71c-0.004,-6.513 -4.494,-11.713 -10.996,-11.713zm-0.646,18.392c-3.664,0 -6.215,-2.658 -6.215,-6.681c0,-3.952 2.479,-6.682 6.215,-6.682c3.664,0 6.215,2.73 6.215,6.682c-0.001,4.019 -2.48,6.677 -6.216,6.677l0.001,0.004z"/>
    <path d="m26.37001,6.57201a7.93,7.93 0 0 0 -7.256,4.275a7.127,7.127 0 0 0 -6.9,-4.275a7.664,7.664 0 0 0 -6.969,3.664l0,-3.564l-5.245,2.766l0,20.3l5.352,0l0,-12.787c0,-3.2 2.048,-5.317 4.993,-5.317s4.67,1.832 4.67,5.317l0,12.788l5.352,0l0,-12.788c0,-3.2 2.12,-5.317 4.993,-5.317s4.67,1.832 4.67,5.317l0,12.788l5.352,0l0,-14.118a8.707,8.707 0 0 0 -9.012,-9.049z"/>
   </g>
  </g>
 </g>

</svg>