<svg xmlns="http://www.w3.org/2000/svg" style="" viewBox="0 0 237.64 30">
<rect id="backgroundrect" width="100%" height="100%" x="0" y="0" fill="none" stroke="none"/>
    <g class="currentLayer" style="">
        <title>Layer 1</title>
        <g fill="#fff" id="svg_2" class="">
            <path d="M95.76.97l-5.34 2.838v3.018h-2.652v4.707h2.652v11.246c0 4.383 2.509 6.97 6.738 6.97h2.186v-4.704h-1.146c-1.541 0-2.437-1.006-2.437-2.694V11.533h3.584V6.826h-3.584z" id="svg_3"/><path d="M50.21 6.575a11.713 11.713 0 1011.683 11.713A11.655 11.655 0 0050.21 6.575zm0 18.4a6.7 6.7 0 010-13.365c3.655 0 6.271 2.731 6.271 6.683s-2.542 6.677-6.271 6.677z" id="svg_4"/><path d="M77.161 6.575a7.258 7.258 0 00-6.666 3.665V6.683L65.262 9.45v20.3h5.34V16.96c0-3.2 2.043-5.317 4.981-5.317s4.659 1.8 4.659 5.317v12.79h5.34V15.63c.001-5.282-3.189-9.055-8.421-9.055z" id="svg_5"/><path d="M26.306 6.575a7.909 7.909 0 00-7.239 4.276 7.11 7.11 0 00-6.881-4.276 7.642 7.642 0 00-6.953 3.665V6.683L.001 9.45v20.3h5.34V16.96c0-3.2 2.043-5.317 4.982-5.317s4.659 1.832 4.659 5.317v12.79h5.34V16.96c0-3.2 2.115-5.317 4.982-5.317s4.659 1.832 4.659 5.317v12.79h5.34V15.63a8.7 8.7 0 00-8.997-9.055z" id="svg_6"/><path d="M225.961 6.575a11.713 11.713 0 1011.683 11.713 11.655 11.655 0 00-11.683-11.713zm0 18.4a6.7 6.7 0 010-13.365c3.655 0 6.272 2.731 6.272 6.683s-2.544 6.677-6.272 6.677z" id="svg_7"/><path d="M178.762 6.826h-8.171v5.03h6.845c4.208 0 6.249 1.448 6.335 4.2h-8.7c-5.161 0-8.207 2.587-8.207 7.006 0 4.347 3.441 6.934 9.175 6.934 4.078 0 6.618-1.54 8.028-3.672v3.42h5.2V16.383c-.005-5.785-4.055-9.557-10.505-9.557zm-2.079 18.539c-2.975 0-4.624-.862-4.624-2.587 0-1.653 1.147-2.515 3.333-2.515h8.368c-.181 3.022-2.889 5.102-7.077 5.102z" id="svg_8"/><path d="M208.257 6.826l-6.021 15.773-6.2-15.773h-6.2l9.569 22.922h5.412l9.569-22.922z" id="svg_9"/><path d="M112.247 6.575a11.64 11.64 0 00-11.468 11.749 11.408 11.408 0 0011.612 11.677 11.935 11.935 0 0011.038-7.437h-5.734a5.937 5.937 0 01-5.3 2.622 6.013 6.013 0 01-6.282-5.066h17.571v-1.653c-.006-7.041-4.737-11.892-11.437-11.892zm-6.009 9.342a5.986 5.986 0 016.188-4.635 5.773 5.773 0 015.949 4.635z" id="svg_10"/><path d="M167.723 6.826h-1.29c-3.154 0-5.59.934-7.347 3.629V6.682l-5.232 2.767v20.3h5.412V17.784c0-3.557 2.294-5.928 5.734-5.928h2.723z" id="svg_11"/><path d="M139.268 6.575a8.721 8.721 0 00-6.666 3.342V.002l-5.34 2.838v26.91h5.233v-3.09a9.042 9.042 0 006.881 3.341c6.487 0 10.859-5.138 10.859-11.712 0-6.504-4.48-11.714-10.967-11.714zm-.646 18.4c-3.655 0-6.2-2.658-6.2-6.682 0-3.952 2.473-6.683 6.2-6.683 3.656 0 6.2 2.731 6.2 6.683.002 4.019-2.472 6.677-6.198 6.677z" id="svg_12"/>
        </g>
    </g>
</svg>